<?xml version="1.0" encoding="UTF-8"?>
<svg xmlns="http://www.w3.org/2000/svg" width="700" height="700" style="stroke:black;stroke-width:3;fill:red">
	<line x1="350" x2="499.7914013164867" y1="192.5" y2="301.32982338594576"/>
	<line x1="350" x2="200.2085986835133" y1="192.5" y2="301.3298233859458"/>
	<line x1="350" x2="349.99999999999994" y1="192.5" y2="35"/>
	<line x1="499.7914013164867" x2="442.57617723606455" y1="301.32982338594576" y2="477.42017661405424"/>
	<line x1="499.7914013164867" x2="649.5828026329733" y1="301.32982338594576" y2="252.6596467718915"/>
	<line x1="442.57617723606455" x2="257.4238227639355" y1="477.42017661405424" y2="477.42017661405424"/>
	<line x1="442.57617723606455" x2="535.1523544721291" y1="477.42017661405424" y2="604.8403532281084"/>
	<line x1="257.4238227639355" x2="200.2085986835133" y1="477.42017661405424" y2="301.3298233859458"/>
	<line x1="257.4238227639355" x2="164.84764552787107" y1="477.42017661405424" y2="604.8403532281085"/>
	<line x1="200.2085986835133" x2="50.417197367026574" y1="301.3298233859458" y2="252.6596467718917"/>
	<line x1="349.99999999999994" x2="649.5828026329733" y1="35" y2="252.6596467718915"/>
	<line x1="349.99999999999994" x2="50.417197367026574" y1="35" y2="252.6596467718917"/>
	<line x1="649.5828026329733" x2="535.1523544721291" y1="252.6596467718915" y2="604.8403532281084"/>
	<line x1="535.1523544721291" x2="164.84764552787107" y1="604.8403532281084" y2="604.8403532281085"/>
	<line x1="164.84764552787107" x2="50.417197367026574" y1="604.8403532281085" y2="252.6596467718917"/>
	<circle cx="350" cy="192.5" r="7"/>
	<circle cx="499.7914013164867" cy="301.32982338594576" r="7"/>
	<circle cx="442.57617723606455" cy="477.42017661405424" r="7"/>
	<circle cx="257.4238227639355" cy="477.42017661405424" r="7"/>
	<circle cx="200.2085986835133" cy="301.3298233859458" r="7"/>
	<circle cx="349.99999999999994" cy="35" r="7"/>
	<circle cx="649.5828026329733" cy="252.6596467718915" r="7"/>
	<circle cx="535.1523544721291" cy="604.8403532281084" r="7"/>
	<circle cx="164.84764552787107" cy="604.8403532281085" r="7"/>
	<circle cx="50.417197367026574" cy="252.6596467718917" r="7"/>
</svg>