<?xml version="1.0" encoding="UTF-8"?>
<svg xmlns="http://www.w3.org/2000/svg" width="700" height="700" style="stroke:black;stroke-width:3;fill:red">
	<line x1="350" x2="507.5" y1="192.5" y2="350"/>
	<line x1="350" x2="192.5" y1="192.5" y2="350.00000000000006"/>
	<line x1="350" x2="349.99999999999994" y1="192.5" y2="35"/>
	<line x1="507.5" x2="350" y1="350" y2="507.5"/>
	<line x1="507.5" x2="665" y1="350" y2="349.9999999999999"/>
	<line x1="350" x2="192.5" y1="507.5" y2="350.00000000000006"/>
	<line x1="350" x2="350.0000000000001" y1="507.5" y2="665"/>
	<line x1="192.5" x2="35" y1="350.00000000000006" y2="350.0000000000001"/>
	<line x1="349.99999999999994" x2="665" y1="35" y2="349.9999999999999"/>
	<line x1="349.99999999999994" x2="35" y1="35" y2="350.0000000000001"/>
	<line x1="665" x2="350.0000000000001" y1="349.9999999999999" y2="665"/>
	<line x1="350.0000000000001" x2="35" y1="665" y2="350.0000000000001"/>
	<circle cx="350" cy="192.5" r="7"/>
	<circle cx="507.5" cy="350" r="7"/>
	<circle cx="350" cy="507.5" r="7"/>
	<circle cx="192.5" cy="350.00000000000006" r="7"/>
	<circle cx="349.99999999999994" cy="35" r="7"/>
	<circle cx="665" cy="349.9999999999999" r="7"/>
	<circle cx="350.0000000000001" cy="665" r="7"/>
	<circle cx="35" cy="350.0000000000001" r="7"/>
</svg>